<svg width="601" height="600" viewBox="0 0 601 600" fill="none" xmlns="http://www.w3.org/2000/svg">
<path d="M27.3747 600L34.2184 590C41.0621 580 54.7495 560 56.3671 540C58.1091 520 47.657 500 36.3338 480C24.8861 460 12.443 440 8.46127 420C4.60392 400 9.08342 380 21.5265 360C33.9696 340 54.3762 320 50.3944 300C46.4126 280 18.2913 260 16.5493 240C14.9317 220 39.8178 200 54.7495 180C69.6812 160 74.6584 140 78.018 120C81.2532 100 82.9952 80 69.6812 60C56.3671 40 28.2457 20 14.0606 10L0 0H601V10C601 20 601 40 601 60C601 80 601 100 601 120C601 140 601 160 601 180C601 200 601 220 601 240C601 260 601 280 601 300C601 320 601 340 601 360C601 380 601 400 601 420C601 440 601 460 601 480C601 500 601 520 601 540C601 560 601 580 601 590V600H27.3747Z" fill="#EF476F"/>
</svg>
