<svg id="visual" viewBox="0 0 900 600" width="900" height="600" xmlns="http://www.w3.org/2000/svg" xmlns:xlink="http://www.w3.org/1999/xlink" version="1.1"><g transform="translate(425.8731595373079 377.3868548740858)"><path d="M246 -307.4C299.2 -248.6 309.1 -152.4 288.6 -79C268.1 -5.5 217.2 45.2 175.4 85.9C133.7 126.6 101 157.3 59.4 179.5C17.8 201.7 -32.8 215.5 -82.2 206.1C-131.6 196.7 -179.7 164.1 -213.7 117.4C-247.7 70.8 -267.6 10 -229.7 -11.9C-191.7 -33.8 -95.9 -16.9 -47.9 -76.6C0 -136.3 0 -272.7 48.2 -330.1C96.4 -387.6 192.8 -366.1 246 -307.4" fill="#BB004B"></path></g></svg>