<svg width="100%" height="100%" id="svg" viewBox="0 0 1440 590" xmlns="http://www.w3.org/2000/svg" class="transition duration-300 ease-in-out delay-150"><path d="M 0,600 L 0,300 C 117.02392344497608,309.72248803827756 234.04784688995215,319.44497607655506 327,316 C 419.95215311004785,312.55502392344494 488.83253588516743,295.9425837320574 568,255 C 647.1674641148326,214.05741626794259 736.622009569378,148.78468899521533 846,133 C 955.377990430622,117.21531100478467 1084.6794258373207,150.9186602870813 1187,137 C 1289.3205741626793,123.08133971291868 1364.6602870813397,61.54066985645934 1440,0 L 1440,600 L 0,600 Z" stroke="none" stroke-width="0" fill="#ef476f" fill-opacity="0.53" class="transition-all duration-300 ease-in-out delay-150 path-0"></path><path d="M 0,600 L 0,500 C 128.58373205741626,483.0143540669857 257.1674641148325,466.0287081339713 337,448 C 416.8325358851675,429.9712918660287 447.9138755980862,410.89952153110045 532,382 C 616.0861244019138,353.10047846889955 753.1770334928229,314.3732057416268 863,299 C 972.8229665071771,283.6267942583732 1055.377990430622,291.60765550239233 1147,279 C 1238.622009569378,266.39234449760767 1339.311004784689,233.19617224880383 1440,200 L 1440,600 L 0,600 Z" stroke="none" stroke-width="0" fill="#ef476f" fill-opacity="1" class="transition-all duration-300 ease-in-out delay-150 path-1"></path></svg>