<svg id="visual" viewBox="0 0 675 900" width="675" height="900" xmlns="http://www.w3.org/2000/svg" xmlns:xlink="http://www.w3.org/1999/xlink" version="1.1"><rect x="0" y="0" width="675" height="900" fill="#e0e0e0"></rect><g transform="translate(583.809954675956 118.14265615054074)"><path d="M553 -730C677 -671.1 710.4 -456.4 790.3 -247.9C870.3 -39.4 996.9 162.8 945.7 303.3C894.5 443.7 665.6 522.4 478.4 510.8C291.1 499.2 145.6 397.2 12.4 380.1C-120.7 363 -241.4 430.7 -356.9 419C-472.5 407.3 -582.9 316.3 -667.3 186.2C-751.7 56.1 -810 -113 -751.5 -229.2C-693.1 -345.3 -517.9 -408.5 -373.2 -460.6C-228.5 -512.8 -114.2 -553.9 50.2 -622.9C214.5 -692 429.1 -788.9 553 -730" fill="#FFCF70"></path></g></svg>