<svg id="visual" viewBox="0 0 675 900" width="675" height="900" xmlns="http://www.w3.org/2000/svg" xmlns:xlink="http://www.w3.org/1999/xlink" version="1.1"><rect x="0" y="0" width="675" height="900" fill="#00D5A3"></rect><path d="M0 484L11.3 498.3C22.7 512.7 45.3 541.3 67.8 550.2C90.3 559 112.7 548 135.2 560.7C157.7 573.3 180.3 609.7 202.8 627.8C225.3 646 247.7 646 270.2 640.2C292.7 634.3 315.3 622.7 337.8 604.2C360.3 585.7 382.7 560.3 405 534.8C427.3 509.3 449.7 483.7 472.2 479.2C494.7 474.7 517.3 491.3 540 499.5C562.7 507.7 585.3 507.3 607.8 504.8C630.3 502.3 652.7 497.7 663.8 495.3L675 493L675 901L663.8 901C652.7 901 630.3 901 607.8 901C585.3 901 562.7 901 540 901C517.3 901 494.7 901 472.2 901C449.7 901 427.3 901 405 901C382.7 901 360.3 901 337.8 901C315.3 901 292.7 901 270.2 901C247.7 901 225.3 901 202.8 901C180.3 901 157.7 901 135.2 901C112.7 901 90.3 901 67.8 901C45.3 901 22.7 901 11.3 901L0 901Z" fill="#e0e0e0" stroke-linecap="round" stroke-linejoin="miter"></path></svg>