<svg id="visual" viewBox="0 0 675 900" width="675" height="900" xmlns="http://www.w3.org/2000/svg" xmlns:xlink="http://www.w3.org/1999/xlink" version="1.1"><g transform="translate(736.6433632418488 -228.38698113408384)"><path d="M431 -424.1C519.1 -439.6 524 -266.4 576.3 -84.6C628.5 97.2 728.2 287.6 680.6 414.3C632.9 541.1 437.9 604.1 237.4 696.2C36.8 788.4 -169.2 909.5 -344.4 876.2C-519.7 842.8 -664.3 654.9 -747.9 457.4C-831.4 259.8 -853.9 52.6 -727.5 -35.2C-601 -122.9 -325.6 -91.3 -179.5 -65.6C-33.4 -39.8 -16.7 -19.9 77.3 -112.1C171.4 -204.3 342.8 -408.6 431 -424.1" fill="#ef476f"></path></g></svg>