<svg id="visual" viewBox="0 0 900 450" width="900" height="450" xmlns="http://www.w3.org/2000/svg" xmlns:xlink="http://www.w3.org/1999/xlink" version="1.1"><rect x="0" y="0" width="900" height="450" fill="#f8f8f8"></rect><path d="M0 310L25 311.3C50 312.7 100 315.3 150 320.3C200 325.3 250 332.7 300 339.7C350 346.7 400 353.3 450 341.8C500 330.3 550 300.7 600 293.8C650 287 700 303 750 313.7C800 324.3 850 329.7 875 332.3L900 335L900 451L875 451C850 451 800 451 750 451C700 451 650 451 600 451C550 451 500 451 450 451C400 451 350 451 300 451C250 451 200 451 150 451C100 451 50 451 25 451L0 451Z" fill="#26547c" stroke-linecap="round" stroke-linejoin="miter"></path></svg>