<svg id="visual" viewBox="0 0 900 600" width="900" height="600" xmlns="http://www.w3.org/2000/svg" xmlns:xlink="http://www.w3.org/1999/xlink" version="1.1"><rect x="0" y="0" width="900" height="600" fill="#f8f8f8"></rect><path d="M0 442L21.5 439.2C43 436.3 86 430.7 128.8 443.7C171.7 456.7 214.3 488.3 257.2 494.8C300 501.3 343 482.7 385.8 459.7C428.7 436.7 471.3 409.3 514.2 414.3C557 419.3 600 456.7 642.8 462.8C685.7 469 728.3 444 771.2 435C814 426 857 433 878.5 436.5L900 440L900 601L878.5 601C857 601 814 601 771.2 601C728.3 601 685.7 601 642.8 601C600 601 557 601 514.2 601C471.3 601 428.7 601 385.8 601C343 601 300 601 257.2 601C214.3 601 171.7 601 128.8 601C86 601 43 601 21.5 601L0 601Z" fill="#26547c" stroke-linecap="round" stroke-linejoin="miter"></path></svg>