<svg xmlns="http://www.w3.org/2000/svg" width="96" height="96" fill="none" viewBox="0 0 96 96" id="dog"><ellipse cx="16.699" cy="39.18" stroke="#000" stroke-width="5" rx="8.025" ry="9.377" transform="rotate(-22.143 16.699 39.18)"></ellipse><ellipse cx="79.251" cy="50.926" stroke="#000" stroke-width="5" rx="8.025" ry="9.377" transform="rotate(31.602 79.251 50.926)"></ellipse><ellipse cx="38.5" cy="25" stroke="#000" stroke-width="5" rx="9.5" ry="11"></ellipse><ellipse cx="64.53" cy="30.358" stroke="#000" stroke-width="5" rx="9.092" ry="10.338" transform="rotate(18.314 64.53 30.358)"></ellipse><path stroke="#000" stroke-width="5" d="M31.8667 51.3023C38.6647 42.1762 52.3353 42.1762 59.1333 51.3023L69.6996 65.4871C74.7791 72.3061 69.9123 82 61.4093 82V82C60.3032 82 59.2013 81.8643 58.1283 81.5958L53.0378 80.3222C48.0846 79.083 42.9067 79.047 37.9367 80.2173L31.8393 81.653C30.8603 81.8836 29.8579 82 28.8521 82V82C20.6541 82 15.9619 72.6539 20.8592 66.0794L31.8667 51.3023Z"></path></svg>