<?xml version="1.0" encoding="UTF-8"?>
<svg xmlns="http://www.w3.org/2000/svg" id="Layer_1" data-name="Layer 1" viewBox="0 0 24 24">
  <path d="m19.705,19.228c.282.491.387,1.071.297,1.634l-.167,1.035c-.196,1.218-1.234,2.103-2.468,2.103h-4.867c-.276,0-.5-.224-.5-.5s.224-.5.5-.5h4.867c.741,0,1.363-.531,1.481-1.262l.167-1.035c.054-.337-.008-.685-.177-.978-.876-1.526-.922-1.893-.939-2.031-.16-1.263-.806-2.117-2.033-2.685-.461-.233-1.659-.837-2.45-.974-.24-.041-.416-.249-.416-.493v-2.304c0-.106-.063-.167-.101-.194-.037-.026-.112-.066-.213-.032-1.008.347-1.686,1.298-1.686,2.365v.965c0,.171-.088.331-.232.422-2.584,1.636-5.575,4.11-5.768,8.756-.011.269-.232.479-.499.479-.007,0-.014,0-.021,0-.276-.011-.49-.244-.479-.521.208-5.012,3.457-7.763,6-9.41v-.691c0-1.494.949-2.825,2.361-3.311.375-.13.794-.068,1.119.164.326.232.52.609.52,1.008v1.903c.819.218,1.854.742,2.286.96,1.548.717,2.4,1.852,2.604,3.467.001.013.049.324.814,1.658Zm-3.705-1.228c0-.552-.448-1-1-1s-1,.448-1,1,.448,1,1,1,1-.448,1-1Zm5.772-12c-.978,0-1.897-.431-2.523-1.182l-.229-.276c-.817-.98-2.017-1.542-3.292-1.542h-.727v-1.761c0-.399-.194-.775-.52-1.008-.325-.232-.745-.293-1.119-.164-1.412.486-2.361,1.816-2.361,3.311v1.514l-2.404,3.273c-.844,1.149-2.2,1.835-3.626,1.835H.5c-.276,0-.5.224-.5.5s.224.5.5.5h4.469c1.743,0,3.4-.839,4.432-2.244l2.501-3.405c.063-.085.097-.189.097-.296v-1.678c0-1.067.678-2.018,1.686-2.365.099-.033.176.006.213.032.038.027.101.088.101.194v2.261c0,.276.224.5.5.5h1.227c.978,0,1.898.431,2.524,1.182l.229.276c.817.979,2.017,1.542,3.292,1.542.677,0,1.228.551,1.228,1.228v1.272c0,1.93-1.57,3.5-3.5,3.5-.276,0-.5.224-.5.5s.224.5.5.5c2.481,0,4.5-2.019,4.5-4.5v-1.272c0-1.228-1-2.228-2.228-2.228Zm-4.772,2c.552,0,1-.448,1-1s-.448-1-1-1-1,.448-1,1,.448,1,1,1Z"/>
</svg>
