<svg xmlns="http://www.w3.org/2000/svg" enable-background="new 0 0 3048.631 3314.743" viewBox="0 0 3048.631 3314.743" id="weight"><path fill="#282d35" d="M3045.282,3064.221l-340.818-1902.099c-18.147-101.266-105.989-175.379-208.879-175.379h-455.792
			c73.39-103,112.878-228.181,112.878-358.507c0-346.472-281.879-628.044-628.351-628.044
			c-346.479,0-628.358,281.417-628.358,627.89c0,130.32,39.494,255.661,112.878,358.661H553.046
			c-102.872,0-190.719,74.113-208.88,175.379L3.349,3063.913c-11.108,62.03,5.705,125.912,46.131,174.209
			c40.426,48.31,99.742,76.621,162.742,76.621h2624.18c63,0,122.317-28.151,162.749-76.467
			C3039.577,3189.961,3056.39,3126.239,3045.282,3064.221z M2920.031,3172.655c-20.78,24.822-51.256,40.088-83.629,40.088H212.222
			c-32.372,0-62.849-15.266-83.622-40.094c-20.773-24.816-29.406-57.841-23.701-89.716L445.716,1181
			c9.332-52.031,54.468-90.256,107.33-90.256h692.699l-89.68-88.133c-101.203-99.679-156.937-232.387-156.937-373.858
			c0-289.586,235.597-525.134,525.19-525.134c289.587,0,525.184,235.622,525.184,525.209c0,141.465-55.734,274.085-156.937,373.771
			l-89.674,88.145h692.693c52.868,0,98.004,37.962,107.324,89.993l340.818,1902.097
			C2949.438,3114.695,2940.798,3147.827,2920.031,3172.655z"></path><path fill="#282d35" d="M1831.436 628.852c0-169.348-137.769-307.117-307.117-307.117s-307.123 137.769-307.123 307.117 137.775 307.123 307.123 307.123S1831.436 798.2 1831.436 628.852zM1524.319 832.807c-112.462 0-203.955-91.493-203.955-203.955 0-112.456 91.493-203.949 203.955-203.949 112.456 0 203.949 91.493 203.949 203.949C1728.268 741.314 1636.774 832.807 1524.319 832.807zM1237.66 2115.45l197.41-204.198c13.343-13.803 17.143-33.464 9.648-51.142-7.507-17.678-24.843-28.367-44.053-28.367h-65.028c-13.386 0-27.074 4.82-36.132 14.684L1014 2155.435v-251.323c0-40.841-33.66-73.95-74.5-73.95s-74.5 33.109-74.5 73.95v584.614c0 40.841 33.66 73.95 74.5 73.95s74.5-33.109 74.5-73.95v-147.413l120.819-122.414 187.967 319.647c8.587 14.659 24.757 23.197 41.74 23.197h75.77c17.538 0 33.687-9.14 42.049-24.557 8.373-15.431 7.624-33.959-1.938-48.681L1237.66 2115.45zM2207 2217.778c0-26.418-17.477-50.034-43.905-50.034h-209.22c-34.072 0-61.698 29.917-61.698 63.999 0 34.072 27.615 64.001 61.698 64.001H2058v90.542c-18 17.304-47.291 32.048-78.42 44.214-31.149 12.162-61.328 18.236-92.294 18.236-62.641 0-112.824-21.737-151.458-65.201-38.656-43.473-57.741-108.674-57.741-195.622 0-80.609 19.182-141.396 57.324-182.385 38.12-40.958 89.562-61.454 154.193-61.454 42.63 0 78.218 10.409 106.711 31.226 15.816 11.574 28.861 25.483 39.076 41.739 15.964 25.398 45.869 38.461 75.357 32.948l.175-.034c25.175-4.71 46.218-21.897 55.919-45.593 9.7-23.686 6.735-50.68-7.892-71.699-15.301-21.995-34.028-41.257-56.183-57.78-51.14-38.14-122.165-57.223-213.106-57.223-69.955 0-128.431 12.175-175.374 36.481-61.634 31.664-108.438 77.118-140.412 136.418-31.983 59.279-47.969 127.08-47.969 203.351 0 70.298 14.316 135.326 42.97 195.121 28.644 59.801 71.465 105.771 128.409 137.904 56.987 32.155 123.749 48.218 200.376 48.218 60.285 0 119.831-11.404 178.639-34.223 48.25-18.718 85.161-39.853 114.671-63.4 11.361-9.071 16.031-22.883 16.031-37.426l0 0V2217.778z"></path></svg>