<svg id="visual" viewBox="0 0 1903 258" width="1903" height="258" xmlns="http://www.w3.org/2000/svg" xmlns:xlink="http://www.w3.org/1999/xlink" version="1.1"><path d="M0 224L45.3 220C90.7 216 181.3 208 272 206.3C362.7 204.7 453.3 209.3 544 205.7C634.7 202 725.3 190 815.8 183.5C906.3 177 996.7 176 1087.2 179.8C1177.7 183.7 1268.3 192.3 1359 199.2C1449.7 206 1540.3 211 1631 209.3C1721.7 207.7 1812.3 199.3 1857.7 195.2L1903 191L1903 259L1857.7 259C1812.3 259 1721.7 259 1631 259C1540.3 259 1449.7 259 1359 259C1268.3 259 1177.7 259 1087.2 259C996.7 259 906.3 259 815.8 259C725.3 259 634.7 259 544 259C453.3 259 362.7 259 272 259C181.3 259 90.7 259 45.3 259L0 259Z" fill="#FFD166" stroke-linecap="round" stroke-linejoin="miter"></path></svg>