<svg id="visual" viewBox="0 0 1903 516" width="1903" height="516" xmlns="http://www.w3.org/2000/svg" xmlns:xlink="http://www.w3.org/1999/xlink" version="1.1"><path d="M0 449L45.3 441C90.7 433 181.3 417 272 413.7C362.7 410.3 453.3 419.7 544 412.3C634.7 405 725.3 381 815.8 367.8C906.3 354.7 996.7 352.3 1087.2 360.2C1177.7 368 1268.3 386 1359 399.8C1449.7 413.7 1540.3 423.3 1631 420C1721.7 416.7 1812.3 400.3 1857.7 392.2L1903 384L1903 517L1857.7 517C1812.3 517 1721.7 517 1631 517C1540.3 517 1449.7 517 1359 517C1268.3 517 1177.7 517 1087.2 517C996.7 517 906.3 517 815.8 517C725.3 517 634.7 517 544 517C453.3 517 362.7 517 272 517C181.3 517 90.7 517 45.3 517L0 517Z" fill="#FFD166" stroke-linecap="round" stroke-linejoin="miter"></path></svg>