<svg id="visual" viewBox="0 0 900 600" width="900" height="600" xmlns="http://www.w3.org/2000/svg" xmlns:xlink="http://www.w3.org/1999/xlink" version="1.1"><rect x="0" y="0" width="900" height="600" fill="#f8f8f8"></rect><defs><linearGradient id="grad1_0" x1="33.3%" y1="0%" x2="100%" y2="100%"><stop offset="20%" stop-color="#f8f8f8" stop-opacity="1"></stop><stop offset="80%" stop-color="#f8f8f8" stop-opacity="1"></stop></linearGradient></defs><defs><linearGradient id="grad2_0" x1="0%" y1="0%" x2="66.7%" y2="100%"><stop offset="20%" stop-color="#f8f8f8" stop-opacity="1"></stop><stop offset="80%" stop-color="#f8f8f8" stop-opacity="1"></stop></linearGradient></defs><g transform="translate(1150, 0)"><path d="M0 432.7C-22.9 404.8 -45.9 376.9 -74.3 373.7C-102.8 370.5 -136.8 391.9 -158.8 383.4C-180.8 374.9 -190.9 336.6 -213.3 319.3C-235.8 302 -270.5 305.7 -294.9 294.9C-319.2 284 -333.2 258.5 -352.5 235.6C-371.9 212.7 -396.6 192.4 -399.7 165.6C-402.9 138.8 -384.5 105.5 -386.4 76.9C-388.3 48.2 -410.5 24.1 -432.7 0L0 0Z" fill="#26547c"></path></g><g transform="translate(0, 600)"><path d="M0 -432.7C23.8 -403.4 47.5 -374.1 72.8 -365.8C98 -357.6 124.7 -370.4 155.4 -375.1C186 -379.8 220.7 -376.5 235.6 -352.5C250.4 -328.6 245.6 -283.9 263.8 -263.8C281.9 -243.6 323.2 -248 353.4 -236.1C383.6 -224.2 402.7 -196.1 399.7 -165.6C396.8 -135.1 371.9 -102.3 373.7 -74.3C375.5 -46.3 404.1 -23.2 432.7 0L0 0Z" fill="#ffd166"></path></g></svg>