<svg id="visual" viewBox="0 0 900 600" width="900" height="600" xmlns="http://www.w3.org/2000/svg" xmlns:xlink="http://www.w3.org/1999/xlink" version="1.1"><rect x="0" y="0" width="900" height="600" fill="#f8f8f8"></rect><defs><linearGradient id="grad1_0" x1="33.3%" y1="0%" x2="100%" y2="100%"><stop offset="20%" stop-color="#f8f8f8" stop-opacity="1"></stop><stop offset="80%" stop-color="#f8f8f8" stop-opacity="1"></stop></linearGradient></defs><defs><linearGradient id="grad2_0" x1="0%" y1="0%" x2="66.7%" y2="100%"><stop offset="20%" stop-color="#f8f8f8" stop-opacity="1"></stop><stop offset="80%" stop-color="#f8f8f8" stop-opacity="1"></stop></linearGradient></defs><g transform="translate(1200, 0)"><path d="M0 486.7C-34.8 446.4 -69.7 406 -104 388.3C-138.4 370.6 -172.2 375.7 -217.5 376.7C-262.8 377.8 -319.4 374.8 -344.2 344.2C-368.9 313.6 -361.8 255.3 -369.8 213.5C-377.8 171.7 -401 146.2 -423.1 113.4C-445.1 80.5 -465.9 40.3 -486.7 0L0 0Z" fill="#ffd166"></path></g><g transform="translate(-92, 600)"><path d="M0 -486.7C31.7 -441.2 63.3 -395.7 104.6 -390.2C145.8 -384.7 196.6 -419.2 242.5 -420C288.4 -420.8 329.2 -387.8 344.2 -344.2C359.1 -300.5 348.1 -246.2 360.3 -208C372.4 -169.8 407.8 -147.9 432.7 -116C457.7 -84 472.2 -42 486.7 0L0 0Z" fill="#06d6a0"></path></g></svg>