<svg id="visual" viewBox="0 0 900 600" width="900" height="600" xmlns="http://www.w3.org/2000/svg" xmlns:xlink="http://www.w3.org/1999/xlink" version="1.1"><rect x="0" y="0" width="900" height="600" fill="#f8f8f8"></rect><defs><linearGradient id="grad1_0" x1="33.3%" y1="100%" x2="100%" y2="0%"><stop offset="20%" stop-color="#f8f8f8" stop-opacity="1"></stop><stop offset="80%" stop-color="#f8f8f8" stop-opacity="1"></stop></linearGradient></defs><defs><linearGradient id="grad2_0" x1="0%" y1="100%" x2="66.7%" y2="0%"><stop offset="20%" stop-color="#f8f8f8" stop-opacity="1"></stop><stop offset="80%" stop-color="#f8f8f8" stop-opacity="1"></stop></linearGradient></defs><g transform="translate(900, 600)"><path d="M-432.7 0C-404.8 -22.9 -376.9 -45.9 -373.7 -74.3C-370.5 -102.8 -391.9 -136.8 -383.4 -158.8C-374.9 -180.8 -336.6 -190.9 -319.3 -213.3C-302 -235.8 -305.7 -270.5 -294.9 -294.9C-284 -319.2 -258.5 -333.2 -235.6 -352.5C-212.7 -371.9 -192.4 -396.6 -165.6 -399.7C-138.8 -402.9 -105.5 -384.5 -76.9 -386.4C-48.2 -388.3 -24.1 -410.5 0 -432.7L0 0Z" fill="#26547c"></path></g><g transform="translate(0, 0)"><path d="M432.7 0C403.4 23.8 374.1 47.5 365.8 72.8C357.6 98 370.4 124.7 375.1 155.4C379.8 186 376.5 220.7 352.5 235.6C328.6 250.4 283.9 245.6 263.8 263.8C243.6 281.9 248 323.2 236.1 353.4C224.2 383.6 196.1 402.7 165.6 399.7C135.1 396.8 102.3 371.9 74.3 373.7C46.3 375.5 23.2 404.1 0 432.7L0 0Z" fill="#26547c"></path></g></svg>